<svg xmlns="http://www.w3.org/2000/svg" version="1.1" viewBox="0 0 474 265">
<path d="M0 0 C156.42 0 312.84 0 474 0 C474 87.45 474 174.9 474 265 C317.58 265 161.16 265 0 265 C0 177.55 0 90.1 0 0 Z " fill="#0E0E0E" transform="translate(0,0)"/>
<path d="M0 0 C0 85.47 0 170.94 0 259 C-66.99 259 -133.98 259 -203 259 C-202.34 257.35 -201.68 255.7 -201 254 C-201.08478733 250.60850693 -201.81866312 249.2281335 -203.9375 246.5625 C-211.10651399 240.56393728 -218.97635853 237.01327009 -227.703125 233.78515625 C-235.4894742 229.56908802 -238.66491855 222.31920679 -242 214.4375 C-242.42788818 213.44186035 -242.85577637 212.4462207 -243.29663086 211.42041016 C-247.54011053 201.23509762 -250.55411195 190.74962484 -253 180 C-253.18296631 179.23115479 -253.36593262 178.46230957 -253.55444336 177.67016602 C-255.41374999 166.52757061 -253.70072493 154.85063817 -252.28991699 143.74569702 C-250.07223029 126.08940927 -249.50034894 108.77796911 -250 91 C-244.39038191 92.80481269 -238.93699886 94.79127505 -233.5 97.0625 C-216.42474155 103.94231669 -195.97318492 104.58224998 -178.7265625 97.30078125 C-168.25859127 92.48568472 -158.82261235 86.42850116 -152.25390625 76.76171875 C-150.98035652 74.97240122 -149.5915883 73.50806471 -148 72 C-147.97421875 72.73605469 -147.9484375 73.47210938 -147.921875 74.23046875 C-147.67214172 78.52701635 -147.43575827 82.09059143 -145.5625 86 C-137.08821392 92.61407694 -124.2590227 92.521878 -114 92 C-103.67297936 90.71600099 -95.48656032 85.49931154 -88.91796875 77.59375 C-82.76269237 69.26971025 -82.47514498 62.24925215 -83 52 C-74.90869059 47.91456284 -66.74826478 43.98701487 -58.55541992 40.10986328 C-52.34690436 37.1708414 -52.34690436 37.1708414 -46.26171875 33.98828125 C-40.12085045 30.62910428 -35.55781474 29.60462428 -28.57421875 29.3125 C-25.74121037 29.16286202 -25.74121037 29.16286202 -22.875 26.9375 C-19.33240493 21.38743439 -18.39297482 15.55587198 -19 9 C-19.95649022 6.97883043 -20.95161125 4.97506482 -22 3 C-19.27172635 2.49465273 -16.54255306 1.99556155 -13.8125 1.5 C-12.65911133 1.28537109 -12.65911133 1.28537109 -11.48242188 1.06640625 C-10.73154297 0.93105469 -9.98066406 0.79570313 -9.20703125 0.65625 C-8.5210083 0.53056641 -7.83498535 0.40488281 -7.12817383 0.27539062 C-5 0 -5 0 0 0 Z " fill="#FEFEFE" transform="translate(474,6)"/>
<path d="M0 0 C2.98170327 -0.02229645 5.96215908 -0.06412471 8.94335938 -0.12304688 C12.57078779 -0.19454948 16.19704134 -0.23088678 19.82513809 -0.24311829 C21.19581618 -0.25343707 22.56646453 -0.27566434 23.93673325 -0.31071472 C33.74728779 -0.54882498 39.14710619 1.11825936 46.60205078 7.45996094 C53.8071775 11.58620518 61.50831603 14.22287218 69.41455078 16.64746094 C70.18331543 16.88537354 70.95208008 17.12328613 71.74414062 17.3684082 C79.57449797 19.66412295 87.57756279 21.0363922 95.60205078 22.45996094 C95.81821045 23.39565918 96.03437012 24.33135742 96.25708008 25.29541016 C101.65500482 52.25964726 101.65500482 52.25964726 110.20361328 78.24121094 C114.20959246 87.49677073 115.10939982 95.43045406 115.27978516 105.52026367 C115.61335623 121.46218113 120.38811703 135.71025133 127.24682617 150.04199219 C132.33920697 160.6846481 135.94047764 170.64232597 136.32861328 182.58496094 C136.6224007 185.67392576 137.02021206 187.78081066 138.60205078 190.45996094 C140.94131041 191.47608069 140.94131041 191.47608069 143.78955078 191.70996094 C144.85044922 191.84660156 145.91134766 191.98324219 147.00439453 192.12402344 C153.19805012 192.70236696 159.38943882 193.13744829 165.60205078 193.45996094 C165.60205078 194.11996094 165.60205078 194.77996094 165.60205078 195.45996094 C85.41205078 195.45996094 5.22205078 195.45996094 -77.39794922 195.45996094 C-77.39794922 134.73996094 -77.39794922 74.01996094 -77.39794922 11.45996094 C-76.40794922 11.78996094 -75.41794922 12.11996094 -74.39794922 12.45996094 C-63.32205172 14.05958782 -53.88839291 9.27025615 -43.98779297 4.98339844 C-42.96814453 4.54253906 -41.94849609 4.10167969 -40.89794922 3.64746094 C-40.02138672 3.24914062 -39.14482422 2.85082031 -38.24169922 2.44042969 C-26.5011364 -1.60748414 -12.32265112 0.08386111 0 0 Z " fill="#FEFEFE" transform="translate(77.39794921875,69.5400390625)"/>
<path d="M0 0 C152.79 0 305.58 0 463 0 C463 0.66 463 1.32 463 2 C457.89855872 3.23404195 453.11971812 4.2193217 447.87109375 3.60546875 C441.36903288 2.86343431 441.36903288 2.86343431 435 4 C432.00140376 6.56983187 430.13552677 9.86719443 428.11035156 13.21655273 C423.28695525 20.90714961 417.47652697 22.44593729 409 25 C406.66455494 25.99505819 404.33113293 26.99488125 402 28 C394.18707003 30.63774144 386.19477513 32.47745655 378.125 34.125 C377.36034424 34.28347412 376.59568848 34.44194824 375.80786133 34.60522461 C362.8588787 37.1543423 350.19922136 38.18191724 337.03329468 38.23425293 C322.48833599 38.3373874 309.70939926 39.80844435 296 45 C294.69491997 45.46998134 293.38897057 45.93755782 292.08203125 46.40234375 C289.77717055 47.22927851 287.47485064 48.06334794 285.17578125 48.90625 C266.78808987 55.23903424 242.1674594 59.00075462 224 51 C220.50389346 49.11206334 217.18661967 46.99863553 213.875 44.8046875 C207.76190943 40.96739423 202.95968819 40.66241258 195.875 40.6875 C194.5446875 40.66333008 194.5446875 40.66333008 193.1875 40.63867188 C188.49892895 40.63527436 184.49227924 41.04169767 180.0222168 42.48632812 C173.39495641 44.35554918 167.00535585 44.51114337 160.15234375 44.58203125 C158.85986221 44.6047258 157.56738068 44.62742035 156.23573303 44.65080261 C153.51877254 44.69729489 150.80191521 44.73408151 148.0847168 44.76342773 C144.62953982 44.80131054 141.17518391 44.86140941 137.72046566 44.92854786 C134.38539767 44.99075724 131.05017183 45.03577678 127.71484375 45.08203125 C126.48853745 45.10481644 125.26223114 45.12760162 123.99876404 45.15107727 C117.80609403 45.20683188 112.15801773 44.85153497 106.11964417 43.46458435 C101.32123914 42.41286826 96.3889948 42.61810387 91.5 42.625 C89.79674561 42.62632935 89.79674561 42.62632935 88.05908203 42.62768555 C76.84713895 42.78364888 66.33894299 44.44611238 55.89453125 48.6171875 C52.45284349 49.94055842 49.53175092 50.37637089 45.8125 50.3125 C44.82894531 50.30863281 43.84539063 50.30476563 42.83203125 50.30078125 C39.87780825 49.98702239 37.72746077 49.1342353 35 48 C30.5911425 47.34058827 26.99543096 47.581919 22.875 49.3125 C19.45352142 52.51083867 17.47089578 55.967142 15.0703125 59.9609375 C11.44607045 65.2810513 6.88276949 69.81361223 2 74 C1.34 74 0.68 74 0 74 C0 49.58 0 25.16 0 0 Z " fill="#FDFDFD" transform="translate(0,0)"/>
<path d="M0 0 C5.0408885 0.89863038 9.30870043 2.30870043 13 6 C13.08203125 8.49609375 13.08203125 8.49609375 12.8125 11.4375 C12.69841797 12.88962891 12.69841797 12.88962891 12.58203125 14.37109375 C11.91687092 17.37547564 11.42857621 18.17618882 9 20 C6.47314453 20.31616211 6.47314453 20.31616211 3.5078125 20.33984375 C-3.42318852 20.76378685 -8.181192 23.14408605 -14.125 26.5625 C-16.12521128 27.66061992 -18.12785015 28.75432884 -20.1328125 29.84375 C-21.11668945 30.38128906 -22.10056641 30.91882813 -23.11425781 31.47265625 C-27.32513379 33.70135677 -31.63264758 35.66278928 -36 37.5625 C-36.71043457 37.87195557 -37.42086914 38.18141113 -38.15283203 38.50024414 C-39.48576929 39.07586703 -40.82123572 39.64567627 -42.15942383 40.20898438 C-43.83794106 40.9303527 -45.48931785 41.7140565 -47.13671875 42.50390625 C-52.76685411 44.91170785 -58.86849486 46.00430508 -64.8125 47.375 C-73.08262229 49.31562662 -81.33389832 51.27828833 -89.5 53.625 C-99.25360425 56.41762052 -109.11750525 58.71335893 -119 61 C-120.40625307 61.3268097 -121.81250332 61.65363155 -123.21875 61.98046875 C-126.14487844 62.65793109 -129.07175147 63.3317726 -132 64 C-132 65.65 -132 67.3 -132 69 C-130.41642541 68.68872484 -128.83315007 68.37592711 -127.25 68.0625 C-126.36828125 67.88847656 -125.4865625 67.71445313 -124.578125 67.53515625 C-122.36764947 67.07631512 -120.18487932 66.56663926 -118 66 C-123.08054952 77.0982878 -133.98108945 84.55127318 -145 89 C-166.33440176 95.49190761 -185.07702348 94.10645794 -205 84 C-204.96519531 82.94683594 -204.93039063 81.89367187 -204.89453125 80.80859375 C-204.63535522 69.29607513 -206.16100161 59.1630519 -209 48 C-208.42894531 48.144375 -207.85789063 48.28875 -207.26953125 48.4375 C-195.45937912 51.14125502 -183.86782344 50.08550603 -172.00439453 48.29882812 C-170.11908528 48.01775401 -168.2295148 47.76569886 -166.33984375 47.515625 C-155.06542218 45.76103573 -144.61319254 41.92413515 -133.90625 38.05859375 C-131.93955565 37.36652622 -129.97104575 36.67957545 -128 36 C-127.33331299 35.76748535 -126.66662598 35.5349707 -125.97973633 35.29541016 C-119.76049791 33.42854443 -113.24659623 33.6428155 -106.80786133 33.53723145 C-76.7763812 33.00990839 -46.67669388 29.39484761 -19 17 C-18.12472656 16.66742187 -17.24945313 16.33484375 -16.34765625 15.9921875 C-8.47881618 12.71855604 -4.57088503 6.92257225 0 0 Z " fill="#FBFBFB" transform="translate(437,10)"/>
<path d="M0 0 C1.25876953 0.19916016 1.25876953 0.19916016 2.54296875 0.40234375 C13.67108962 2.0363765 24.76603623 2.60070003 36 3 C36.29429371 15.08341373 35.28823223 26.67525026 33.70898438 38.64282227 C32.64606658 46.79818558 31.8187305 54.84548789 31.796875 63.078125 C31.79397461 63.75141342 31.79107422 64.42470184 31.78808594 65.11839294 C31.90400466 76.80164189 34.8602502 88.13939134 39 99 C39.29068359 99.76425293 39.58136719 100.52850586 39.88085938 101.31591797 C40.88755787 103.94468705 41.90934189 106.56705313 42.9375 109.1875 C43.26129639 110.01926758 43.58509277 110.85103516 43.91870117 111.70800781 C48.22856257 122.4864053 52.42019017 131.12409276 63.375 136.16015625 C64.91142568 136.80686604 66.45323008 137.44093726 68 138.0625 C73.91683755 140.4699381 79.00918142 142.95823335 84 147 C84 147.66 84 148.32 84 149 C49.25647833 149.46093048 49.25647833 149.46093048 38 147 C35.44501869 144.44501869 35.78018302 143.48384485 35.6875 139.9375 C34.74673086 126.81377053 29.99627937 115.08991126 23.8671875 103.5859375 C16.89633471 90.41660099 14.81977812 77.5057057 14.5625 62.8125 C14.36785861 52.68825348 13.11087365 45.29782893 9 36 C6.60175765 28.97036933 4.63783184 21.82145193 2.8125 14.625 C2.56197876 13.64394287 2.56197876 13.64394287 2.30639648 12.64306641 C1.2655359 8.43783965 0.54868209 4.28969632 0 0 Z " fill="#FAFAFA" transform="translate(183,109)"/>
<path d="M0 0 C1.6396875 -0.01836914 1.6396875 -0.01836914 3.3125 -0.03710938 C4.90964844 -0.04000977 4.90964844 -0.04000977 6.5390625 -0.04296875 C7.96919678 -0.04913208 7.96919678 -0.04913208 9.42822266 -0.05541992 C12.375 0.1875 12.375 0.1875 15.58178711 1.18969727 C20.43708445 2.46688078 24.90690797 2.43719578 29.90234375 2.3828125 C30.89126114 2.3799826 31.88017853 2.37715271 32.89906311 2.37423706 C36.03700195 2.36310142 39.17464839 2.33800903 42.3125 2.3125 C44.44856357 2.30246165 46.58463164 2.2933373 48.72070312 2.28515625 C53.93890073 2.2631838 59.15692946 2.22977254 64.375 2.1875 C64.5 8.8125 64.5 8.8125 63.375 12.1875 C63.29290208 13.96063851 63.26753706 15.73670775 63.27734375 17.51171875 C63.28056641 18.53974609 63.28378906 19.56777344 63.28710938 20.62695312 C63.29548828 21.69880859 63.30386719 22.77066406 63.3125 23.875 C63.31926758 25.50018555 63.31926758 25.50018555 63.32617188 27.15820312 C63.33796257 29.83469085 63.35441937 32.51106777 63.375 35.1875 C48.2255902 32.01135981 35.21211895 26.85255529 22.375 18.1875 C19.08159901 17.08969967 16.59094696 17.03381849 13.12207031 16.99462891 C11.8293219 16.97856598 10.53657349 16.96250305 9.20465088 16.94595337 C7.78748236 16.93445526 6.37030637 16.92384853 4.953125 16.9140625 C4.23541679 16.90873882 3.51770859 16.90341515 2.77825165 16.89793015 C-1.03209869 16.87119244 -4.84241645 16.851833 -8.65283203 16.83740234 C-11.77976326 16.82415366 -14.90602779 16.79647386 -18.03271484 16.75537109 C-21.82939168 16.70547434 -25.6254719 16.68121098 -29.42246246 16.67417526 C-30.85591397 16.66754667 -32.28935667 16.65255014 -33.7226181 16.62828445 C-47.04119232 16.41594695 -57.41881693 19.57844664 -69.375 25.375 C-75.04367086 28.10748199 -80.39140481 29.46295387 -86.625 30.1875 C-86.625 29.5275 -86.625 28.8675 -86.625 28.1875 C-85.820625 27.56875 -85.01625 26.95 -84.1875 26.3125 C-78.42258737 21.73608832 -74.299935 15.10928817 -70.18359375 9.07421875 C-69 7.4375 -69 7.4375 -66.625 5.1875 C-62.98796363 4.66792338 -60.64203878 4.75856766 -57.25390625 6.1875 C-47.77680596 9.7924594 -38.00135971 6.47062128 -28.86889648 3.41015625 C-19.25012091 0.21637344 -10.08700174 0.00598991 0 0 Z " fill="#F8F8F8" transform="translate(93.625,47.8125)"/>
<path d="M0 0 C1.093125 0.61875 2.18625 1.2375 3.3125 1.875 C4.1375 2.23078125 4.9625 2.5865625 5.8125 2.953125 C10.04337628 4.99476879 12.67673554 6.5659729 14.76953125 10.875 C15.79364265 14.18897847 16.59142255 17.48342062 17.3125 20.875 C17.72694238 22.18820405 18.1432197 23.50083259 18.5625 24.8125 C20.00406308 30.66726937 19.46368189 36.89491649 19.3125 42.875 C16.3125 43.875 16.3125 43.875 14.359375 43.3203125 C11.46879159 41.2792517 10.26620503 38.82977448 8.5625 35.75 C7.94890625 34.65429688 7.3353125 33.55859375 6.703125 32.4296875 C6.01476562 31.16511719 6.01476562 31.16511719 5.3125 29.875 C3.9925 30.205 2.6725 30.535 1.3125 30.875 C1.95576233 34.62002044 3.69018868 37.15640656 5.75 40.3125 C9.57939909 46.67652185 10.73270112 52.53876923 11.3125 59.875 C3.10381274 60.23655719 -4.65027322 59.78121101 -12.75 58.5 C-13.55864502 58.37391357 -14.36729004 58.24782715 -15.20043945 58.11791992 C-23.53873673 56.72021099 -23.53873673 56.72021099 -26.6875 54.875 C-31.50969203 46.05505523 -31.99148915 34.2926128 -32.125 24.4375 C-32.1470752 23.60984131 -32.16915039 22.78218262 -32.19189453 21.92944336 C-32.16873523 15.16216063 -30.41084285 9.96862192 -25.90625 4.8515625 C-25.3390625 4.40554687 -24.771875 3.95953125 -24.1875 3.5 C-23.6203125 3.03851563 -23.053125 2.57703125 -22.46875 2.1015625 C-15.74597698 -2.52771542 -7.68776589 -2.3454201 0 0 Z " fill="#FAFAFA" transform="translate(207.6875,47.125)"/>
<path d="M0 0 C0.68703418 7.51920739 0.55336144 12.81915384 -4.171875 18.90234375 C-4.77515625 19.59457031 -5.3784375 20.28679687 -6 21 C-6.60328125 21.72316406 -7.2065625 22.44632813 -7.828125 23.19140625 C-13.56997369 29.52844657 -19.22572827 32.57001901 -27.7734375 33.33984375 C-36.05977309 33.65294957 -44.17391645 32.95170625 -52 30 C-54 28 -54 28 -54.265625 25.3203125 C-54.26046875 24.26585938 -54.2553125 23.21140625 -54.25 22.125 C-54.25515625 21.07570313 -54.2603125 20.02640625 -54.265625 18.9453125 C-53.99655908 15.96184626 -53.6230774 14.47764742 -52 12 C-50.13085938 11.16625977 -50.13085938 11.16625977 -47.84375 10.69140625 C-46.99449951 10.50425049 -46.14524902 10.31709473 -45.27026367 10.12426758 C-44.35607666 9.93888428 -43.44188965 9.75350098 -42.5 9.5625 C-40.58919104 9.14359125 -38.67904277 8.72165869 -36.76953125 8.296875 C-35.32247803 7.97879883 -35.32247803 7.97879883 -33.84619141 7.65429688 C-28.86198603 6.50850254 -23.95566084 5.10236953 -19.0390625 3.69946289 C-17.02771564 3.12673473 -15.01486928 2.56020783 -13 2 C-12.30342285 1.80583496 -11.6068457 1.61166992 -10.88916016 1.41162109 C-7.1796043 0.4237361 -3.84342839 -0.24021427 0 0 Z " fill="#F9F9F9" transform="translate(386,60)"/>
<path d="M0 0 C1.47588602 0.00051982 2.95177274 -0.00000258 4.42765808 -0.00151062 C7.50127673 -0.00142149 10.57462986 0.00889257 13.64819336 0.02709961 C17.58000335 0.04988531 21.51142984 0.05030653 25.44328785 0.04358196 C28.48281748 0.04023714 31.52226018 0.04688007 34.5617733 0.0567112 C36.01179232 0.06054712 37.46182103 0.06171811 38.91184425 0.06012535 C40.93579929 0.05975323 42.95974119 0.07388222 44.98364258 0.08862305 C46.70711662 0.09553413 46.70711662 0.09553413 48.46540833 0.10258484 C51.54589461 0.3635291 53.76023614 1.05471248 56.54296875 2.36328125 C55.88296875 4.01328125 55.22296875 5.66328125 54.54296875 7.36328125 C53.74054245 7.35884003 52.93811615 7.3543988 52.1113739 7.349823 C44.50656096 7.30955691 36.90180055 7.27920134 29.29690838 7.25965691 C25.38824053 7.24927078 21.47966161 7.23520749 17.57104492 7.21240234 C13.79089816 7.19048769 10.01083632 7.17867386 6.23063087 7.17352676 C4.7967171 7.16986412 3.36280737 7.16271311 1.92893028 7.15182114 C-10.421562 7.06183424 -20.96085436 8.25075902 -32.26953125 13.36328125 C-46.53627 19.65843696 -46.53627 19.65843696 -52.83203125 19.48828125 C-53.70601562 19.47023438 -54.58 19.4521875 -55.48046875 19.43359375 C-56.13273437 19.41039063 -56.785 19.3871875 -57.45703125 19.36328125 C-57.12703125 17.71328125 -56.79703125 16.06328125 -56.45703125 14.36328125 C-55.55984375 14.15574219 -54.66265625 13.94820312 -53.73828125 13.734375 C-45.86353609 11.79009391 -38.60754049 9.37966802 -31.265625 5.91381836 C-20.85208942 1.0584527 -11.40896596 -0.08001403 0 0 Z " fill="#0E0E0E" transform="translate(61.45703125,63.63671875)"/>
<path d="M0 0 C-0.34933594 0.53109375 -0.69867188 1.0621875 -1.05859375 1.609375 C-1.51363281 2.31578125 -1.96867188 3.0221875 -2.4375 3.75 C-2.88996094 4.44609375 -3.34242188 5.1421875 -3.80859375 5.859375 C-5.93340899 9.67707583 -6.1216871 13.09632267 -6.09765625 17.421875 C-6.09443359 18.44667969 -6.09121094 19.47148438 -6.08789062 20.52734375 C-6.07951172 21.59082031 -6.07113281 22.65429688 -6.0625 23.75 C-6.05798828 24.82894531 -6.05347656 25.90789062 -6.04882812 27.01953125 C-6.03705727 29.67974383 -6.02061399 32.33984365 -6 35 C-8.64 35 -11.28 35 -14 35 C-15.49217531 30.52347407 -15.18441293 26.1267553 -15.1875 21.4375 C-15.19974609 20.48552734 -15.21199219 19.53355469 -15.22460938 18.55273438 C-15.23770921 12.13818396 -14.50469769 6.23447829 -13 0 C-11.20909747 -0.19466332 -9.41723495 -0.38051213 -7.625 -0.5625 C-6.12839844 -0.71912109 -6.12839844 -0.71912109 -4.6015625 -0.87890625 C-2 -1 -2 -1 0 0 Z " fill="#F3F3F3" transform="translate(177,50)"/>
<path d="M0 0 C8.58 0 17.16 0 26 0 C26 0.66 26 1.32 26 2 C17.439511 3.92139232 7.51223214 5.83741071 -1 3 C-0.67 2.01 -0.34 1.02 0 0 Z " fill="#ECECEC" transform="translate(437,0)"/>
<path d="M0 0 C2.52197266 -0.2487793 2.52197266 -0.2487793 5.6640625 -0.07421875 C7.34628906 0.00795898 7.34628906 0.00795898 9.0625 0.09179688 C10.238125 0.16462891 11.41375 0.23746094 12.625 0.3125 C14.40003906 0.4043457 14.40003906 0.4043457 16.2109375 0.49804688 C19.14164579 0.65167271 22.0708392 0.81957381 25 1 C25 1.66 25 2.32 25 3 C16.09 3 7.18 3 -2 3 C-1.34 2.01 -0.68 1.02 0 0 Z " fill="#D7D7D7" transform="translate(218,262)"/>
<path d="M0 0 C-1.98 2.97 -1.98 2.97 -4 6 C-5.32 5.67 -6.64 5.34 -8 5 C-7.25 2.5625 -7.25 2.5625 -6 0 C-3.40713222 -1.13437965 -2.55267344 -1.27633672 0 0 Z " fill="#ECECEC" transform="translate(177,50)"/>
<path d="M0 0 C0.33 0.99 0.66 1.98 1 3 C3.01508358 3.73323796 3.01508358 3.73323796 5 4 C5 4.99 5 5.98 5 7 C1.125 6.125 1.125 6.125 0 5 C-0.04063832 3.33382885 -0.042721 1.66611905 0 0 Z " fill="#DBDBDB" transform="translate(219,249)"/>
<path d="M0 0 C4.95 0.99 4.95 0.99 10 2 C10 2.33 10 2.66 10 3 C8.71254964 3.38922918 7.41980403 3.76098036 6.125 4.125 C5.04605469 4.43824219 5.04605469 4.43824219 3.9453125 4.7578125 C3.30335937 4.83773437 2.66140625 4.91765625 2 5 C1.34 4.34 0.68 3.68 0 3 C0 2.01 0 1.02 0 0 Z " fill="#DBDBDB" transform="translate(0,81)"/>
<path d="M0 0 C0.66 0.33 1.32 0.66 2 1 C1.34 1.66 0.68 2.32 0 3 C-0.46162427 5.43252661 -0.46162427 5.43252661 -0.625 8.125 C-0.69976562 9.03507812 -0.77453125 9.94515625 -0.8515625 10.8828125 C-0.90054687 11.58148438 -0.94953125 12.28015625 -1 13 C-1.33 13 -1.66 13 -2 13 C-2.33 9.37 -2.66 5.74 -3 2 C-2.01 1.34 -1.02 0.68 0 0 Z " fill="#B5B5B5" transform="translate(394,56)"/>
<path d="M0 0 C-1.98 1.32 -3.96 2.64 -6 4 C-6.66 2.68 -7.32 1.36 -8 0 C-4.94736336 -0.98120464 -3.05263664 -0.98120464 0 0 Z " fill="#DCDCDC" transform="translate(460,9)"/>
</svg>