<?xml version="1.0" encoding="UTF-8"?>
<svg version="1.1" xmlns="http://www.w3.org/2000/svg" width="474" height="474">
<path d="M0 0 C156.42 0 312.84 0 474 0 C474 156.42 474 312.84 474 474 C317.58 474 161.16 474 0 474 C0 317.58 0 161.16 0 0 Z " fill="#FDFDFD" transform="translate(0,0)"/>
<path d="M0 0 C3.96683344 1.5253447 8.00030128 2.83167495 12.04248047 4.14111328 C17.36086978 5.88153331 22.56248689 7.73799096 27.72998047 9.89111328 C31.60066822 11.38660628 35.5377075 12.66085494 39.47998047 13.95361328 C44.98533686 15.75894119 50.37999921 17.66195442 55.72998047 19.89111328 C60.32683658 21.66717133 65.0207671 23.16115223 69.71044922 24.67236328 C77.14870949 27.09473477 84.36236328 29.93787807 91.43334961 33.28662109 C110.87753184 41.94875577 130.22675773 41.1242152 151.08935547 40.74645996 C154.88905643 40.6888937 158.68832328 40.67697954 162.48840237 40.66631699 C167.06782106 40.65081411 171.64686117 40.60736191 176.22607422 40.56298828 C177.08060118 40.55734612 177.93512814 40.55170395 178.81554985 40.54589081 C187.71223944 40.46979434 196.11610647 40.37391529 204.47998047 36.95361328 C205.64544655 36.48782867 205.64544655 36.48782867 206.8344574 36.01263428 C208.37449842 35.38706278 209.91234212 34.75607152 211.44873047 34.12158203 C215.41546511 32.59316237 219.44092382 31.27670982 223.47998047 29.95361328 C228.20151933 28.40549702 232.89038196 26.86594599 237.47998047 24.95361328 C242.84600038 22.71777165 248.36622721 20.97468172 253.88623047 19.16455078 C257.80464616 17.8714736 261.66878407 16.54161178 265.47998047 14.95361328 C270.06962664 13.04126071 274.75855757 11.50218633 279.47998047 9.95361328 C285.01721447 8.13450977 290.47425741 6.24815102 295.86279297 4.02001953 C302.01074929 1.51495673 308.23912173 -0.78436543 314.47998047 -3.04638672 C315.91470703 -3.56652344 315.91470703 -3.56652344 317.37841797 -4.09716797 C323.72113885 -6.2080735 330.26349309 -7.64141522 336.71044922 -5.20263672 C341.82105062 -2.36447909 345.49059139 1.41435102 347.47998047 6.95361328 C348.63307806 13.97616665 348.07191661 19.14558669 344.09912109 25.07519531 C341.25948418 28.36955093 337.79668043 30.0425343 333.91748047 31.89111328 C333.07596436 32.31239502 332.23444824 32.73367676 331.36743164 33.16772461 C324.09200281 36.76862621 316.68566926 40.08432727 309.26123047 43.36376953 C302.21990708 46.49116582 295.26105482 49.79347737 288.29248047 53.07861328 C277.22674268 58.29045407 266.12496932 63.41353863 254.97998047 68.45361328 C238.73879802 75.79858908 222.6069607 83.3601921 206.47998047 90.95361328 C206.14998047 110.09361328 205.81998047 129.23361328 205.47998047 148.95361328 C208.44998047 147.96361328 211.41998047 146.97361328 214.47998047 145.95361328 C244.05573811 137.65862259 244.05573811 137.65862259 255.47998047 143.95361328 C256.34623047 144.36611328 257.21248047 144.77861328 258.10498047 145.20361328 C262.56557581 148.49036774 266.10345554 153.57265219 267.47998047 158.95361328 C268.53246789 167.11443884 266.2541443 174.67376949 264.13916016 182.47802734 C262.858488 187.28766276 261.67928319 192.12318281 260.47998047 196.95361328 C259.96075814 199.02921142 259.44123213 201.10473361 258.92138672 203.18017578 C258.06862938 206.59009407 257.22034361 210.00098166 256.38232422 213.41455078 C254.92092915 219.35155894 253.40628663 225.2640919 251.72827148 231.14355469 C249.38412016 239.36139814 247.36629191 247.61844075 245.47998047 255.95361328 C237.19866713 292.28487653 237.19866713 292.28487653 227.32373047 298.94580078 C221.3871356 302.19080391 216.16023419 302.80431583 209.47998047 301.95361328 C202.09571197 299.67908932 197.18923096 295.71067449 193.47998047 288.95361328 C189.8286024 279.82516812 191.56103452 271.41347116 194.16748047 262.26611328 C194.72517373 260.22656821 195.27978707 258.18617883 195.83154297 256.14501953 C196.11030273 255.11521973 196.3890625 254.08541992 196.67626953 253.02441406 C197.91875651 248.2771476 198.98563044 243.49503625 200.04248047 238.70361328 C201.64318387 231.50077186 203.35321436 224.33982382 205.22998047 217.20361328 C205.44082275 216.39891602 205.65166504 215.59421875 205.86889648 214.76513672 C207.34792177 209.21773067 207.34792177 209.21773067 208.47998047 206.95361328 C204.29138935 208.80532018 200.10409173 210.65993528 195.91748047 212.51611328 C195.3017215 212.78895142 194.68596252 213.06178955 194.05154419 213.34289551 C185.64999423 217.06774907 177.28922236 220.85981993 169.00732422 224.84423828 C166.47998047 225.95361328 166.47998047 225.95361328 164.47998047 225.95361328 C165.76125583 254.12203771 165.76125583 254.12203771 167.47998047 282.26611328 C168.54292451 297.54567387 169.40477818 312.83257993 170.22119141 328.12695312 C170.39873672 331.45035294 170.57937219 334.77356671 170.76220703 338.09667969 C171.00194035 342.45495729 171.23710688 346.81346075 171.46923828 351.17214966 C171.55800472 352.82755995 171.64811835 354.48289869 171.73974609 356.13815308 C172.19317202 364.35660374 172.56795373 372.56962507 172.64404297 380.80126953 C172.6564502 382.06720947 172.66885742 383.33314941 172.68164062 384.63745117 C172.40392896 389.20422792 171.14456998 392.30144864 168.47998047 395.95361328 C167.94373047 396.84048828 167.40748047 397.72736328 166.85498047 398.64111328 C161.781915 403.58067703 155.95414651 406.24626629 148.85498047 406.45361328 C139.87445082 405.9357487 135.27112502 403.37342044 129.24169922 396.69580078 C123.99839458 388.53438203 123.48059038 378.8806881 122.34567261 369.46560669 C121.82925504 365.18700789 121.28284492 360.91223716 120.73779297 356.63720703 C120.63073532 355.79290634 120.52367767 354.94860565 120.41337585 354.07872009 C119.55408231 347.3667809 118.5380928 340.68953557 117.41748047 334.01611328 C115.88695551 324.85287031 114.63351481 315.67150968 113.47998047 306.45361328 C112.1806093 296.07036857 110.70050779 285.74205765 108.98657227 275.41943359 C107.37081125 265.57022631 106.06505492 255.68472659 104.78662109 245.78735352 C104.55168945 243.97473022 104.55168945 243.97473022 104.31201172 242.12548828 C104.17512939 241.05395508 104.03824707 239.98242188 103.8972168 238.87841797 C103.64862467 237.13580026 103.35979922 235.39705653 102.98825741 233.67645454 C101.16477745 223.90806633 101.32521471 213.70506966 101.2746582 203.79785156 C101.26475861 202.5668573 101.25485901 201.33586304 101.24465942 200.06756592 C101.21877399 196.74206028 101.19679098 193.41657477 101.17665744 190.09103251 C101.15454306 186.597031 101.1272809 183.10306943 101.1006012 179.60910034 C101.05101372 173.01513549 101.00595139 166.42114807 100.96257883 159.82713974 C100.91291317 152.31060761 100.85810541 144.79411561 100.80289924 137.27762246 C100.68960144 121.83632329 100.58265216 106.39498699 100.47998047 90.95361328 C99.61421387 90.56616943 98.74844727 90.17872559 97.85644531 89.77954102 C94.571058 88.30830087 91.2874909 86.8330339 88.00439453 85.35668945 C86.59699222 84.72444546 85.18913135 84.09322104 83.78076172 83.46313477 C75.24841447 79.64490937 66.82301531 75.68239435 58.48156738 71.46286011 C55.05027985 69.73755281 51.59366031 68.12231626 48.08935547 66.55126953 C46.8070359 65.97333309 45.52472847 65.3953697 44.24243164 64.81738281 C43.58939056 64.52430237 42.93634949 64.23122192 42.26351929 63.92926025 C28.22105502 57.62358582 14.27267391 51.13084835 0.36279297 44.53857422 C-8.23150481 40.47038635 -16.84947636 36.47295059 -25.61303711 32.77832031 C-31.26938745 30.32128066 -35.6872346 27.45841935 -39.39501953 22.39111328 C-41.29612657 16.58217512 -41.79163439 10.39545084 -39.64111328 4.57470703 C-30.02656269 -12.14763013 -14.68448142 -5.83743484 0 0 Z " fill="#010101" transform="translate(83.52001953125,63.04638671875)"/>
<path d="M0 0 C10.43387955 8.22063237 15.78526135 18.29480608 17.41796875 31.5 C17.96422371 42.60226293 14.19587301 53.26351813 6.9296875 61.66796875 C6.31351562 62.31378906 5.69734375 62.95960937 5.0625 63.625 C4.46695313 64.26050781 3.87140625 64.89601563 3.2578125 65.55078125 C-5.78232994 74.30959145 -17.14957218 76.96209035 -29.3359375 76.8359375 C-40.59282976 76.17664012 -50.72790731 70.73134233 -58.41015625 62.54296875 C-61.10022081 59.16490813 -63.06414925 55.50256055 -64.9375 51.625 C-65.246875 50.99207031 -65.55625 50.35914063 -65.875 49.70703125 C-69.98872581 40.7478111 -70.34571716 29.89005636 -66.9375 20.625 C-61.85265719 7.82399713 -54.1614693 -0.44300913 -41.69921875 -6.31640625 C-27.55346712 -11.7386109 -12.03852753 -8.59894824 0 0 Z " fill="#020202" transform="translate(262.9375,13.375)"/>
<path d="M0 0 C0.66 1.32 1.32 2.64 2 4 C-1.76624671 5.25541557 -3.37188934 4.37061958 -7 3 C-3.25 1.875 -3.25 1.875 -1 3 C-0.67 2.01 -0.34 1.02 0 0 Z " fill="#D5D5D5" transform="translate(196,99)"/>
</svg>
